<svg width="17" height="16" viewBox="0 0 17 16" fill="none" xmlns="http://www.w3.org/2000/svg">
<path d="M13.8333 10.3333C13 10.3333 12.2 10.2 11.4533 9.95333C11.22 9.88 10.96 9.93333 10.7733 10.1133L9.30667 11.58C7.42 10.62 5.87333 9.08 4.91333 7.18667L6.38 5.71333C6.56667 5.54 6.62 5.28 6.54667 5.04667C6.3 4.3 6.16667 3.5 6.16667 2.66667C6.16667 2.3 5.86667 2 5.5 2H3.16667C2.8 2 2.5 2.3 2.5 2.66667C2.5 8.92667 7.57333 14 13.8333 14C14.2 14 14.5 13.7 14.5 13.3333V11C14.5 10.6333 14.2 10.3333 13.8333 10.3333ZM13.1667 8H14.5C14.5 4.68667 11.8133 2 8.5 2V3.33333C11.08 3.33333 13.1667 5.42 13.1667 8ZM10.5 8H11.8333C11.8333 6.16 10.34 4.66667 8.5 4.66667V6C9.60667 6 10.5 6.89333 10.5 8Z" fill="#D65B56"/>
</svg>
