<svg width="25" height="24" viewBox="0 0 25 24" fill="none" xmlns="http://www.w3.org/2000/svg">
<path d="M20.5 15.5C19.25 15.5 18.05 15.3 16.93 14.93C16.58 14.82 16.19 14.9 15.91 15.17L13.71 17.37C10.88 15.93 8.56 13.62 7.12 10.78L9.32 8.57C9.6 8.31 9.68 7.92 9.57 7.57C9.2 6.45 9 5.25 9 4C9 3.45 8.55 3 8 3H4.5C3.95 3 3.5 3.45 3.5 4C3.5 13.39 11.11 21 20.5 21C21.05 21 21.5 20.55 21.5 20V16.5C21.5 15.95 21.05 15.5 20.5 15.5ZM19.5 12H21.5C21.5 7.03 17.47 3 12.5 3V5C16.37 5 19.5 8.13 19.5 12ZM15.5 12H17.5C17.5 9.24 15.26 7 12.5 7V9C14.16 9 15.5 10.34 15.5 12Z" fill="white"/>
</svg>
