<svg width="32" height="32" viewBox="0 0 32 32" fill="none" xmlns="http://www.w3.org/2000/svg">
<path d="M14.6768 4.07242C15.0933 2.7906 16.9067 2.7906 17.3232 4.07242L19.2799 10.0944C19.4661 10.6676 20.0003 11.0557 20.6031 11.0557H26.9349C28.2827 11.0557 28.8431 12.7804 27.7527 13.5726L22.6302 17.2944C22.1425 17.6487 21.9385 18.2767 22.1247 18.8499L24.0814 24.8719C24.4979 26.1537 23.0308 27.2196 21.9404 26.4274L16.8178 22.7056C16.3302 22.3513 15.6699 22.3513 15.1822 22.7056L10.0597 26.4274C8.96928 27.2196 7.50218 26.1537 7.91867 24.8719L9.87532 18.8499C10.0616 18.2767 9.85753 17.6487 9.36989 17.2944L4.24733 13.5726C3.15694 12.7804 3.71732 11.0557 5.06511 11.0557H11.397C11.9997 11.0557 12.5339 10.6676 12.7202 10.0944L14.6768 4.07242Z" fill="#D65B56"/>
</svg>
